<svg xmlns="http://www.w3.org/2000/svg" xmlns:xlink="http://www.w3.org/1999/xlink" viewBox="0 0 82 68" xmlns:v="https://vecta.io/nano"><g fill-rule="evenodd"><use xlink:href="#B"/><use xlink:href="#B" fill="#fff" stroke="#fff" stroke-linejoin="round" stroke-width="6.87"/><path d="M28.8 51.97l6.35-13.36c-4.85-1.03-9.73-4.03-12.49-7.68l-6.64 13.96c3.69 3.13 8.12 5.59 12.78 7.08" fill="#1a007f"/><use xlink:href="#C" fill="#4e000a"/><path d="M16.02 44.89l-3.32 6.98c-1.69 3.55-.42 7.92 3.06 9.77 3.69 1.96 8.23.43 10.01-3.3l3.03-6.37c-4.679-1.508-9.02-3.913-12.78-7.08" fill="#1a007f"/><use xlink:href="#D" fill="#ff9396"/><use xlink:href="#E" fill="#002dc8"/><path d="M65.43 51.84l-3.5-7.36-6.63-13.95-.01.01-9.63-20.29a7.29 7.29 0 0 0-6.58-4.16c-2.81 0-5.37 1.62-6.58 4.16l-9.83 20.68c2.76 3.65 7.64 6.65 12.49 7.68l3.18-6.68c.3-.63 1.2-.63 1.5 0l3.11 6.54h.02-.02l6.33 13.32 3.11 6.54a7.28 7.28 0 0 0 6.59 4.16 7.15 7.15 0 0 0 1.94-.27c4.39-1.21 6.47-6.26 4.51-10.38" fill="#ff536a"/><path d="m28.8 51.97 6.35-13.36c-4.85-1.03-9.73-4.03-12.49-7.68l-6.64 13.96c3.69 3.13 8.12 5.59 12.78 7.08" fill="#1a007f"/><use xlink:href="#C" fill="#4e000a"/><path d="m16.02 44.89-3.32 6.98c-1.69 3.55-.42 7.92 3.06 9.77 3.69 1.96 8.23.43 10.01-3.3l3.03-6.37a37.885 37.885 0 0 1-12.78-7.08" fill="#1a007f"/><use xlink:href="#D" fill="#ff9396"/><use xlink:href="#E" fill="#002dc8"/><path d="M65.43 51.84l-3.5-7.36-6.63-13.95-.01.01-9.63-20.29a7.292 7.292 0 0 0-6.58-4.16c-2.81 0-5.37 1.62-6.58 4.16l-9.83 20.68c2.76 3.65 7.64 6.65 12.49 7.68l3.18-6.68c.3-.63 1.2-.63 1.5 0l3.11 6.54h.02-.02l6.33 13.32 3.11 6.54a7.28 7.28 0 0 0 6.59 4.16 7.15 7.15 0 0 0 1.94-.27c4.39-1.21 6.47-6.26 4.51-10.38" fill="#ff536a"/></g><defs ><path id="B" d="M39.08 6.09c2.81 0 5.37 1.62 6.58 4.16l9.64 20.28c2.26-2.77 3.9-6.03 4.6-9.53a7.3 7.3 0 0 1 8.58-5.72 7.29 7.29 0 0 1 5.72 8.58c-1.62 8.09-6.14 15.32-12.26 20.63l3.5 7.36c1.94 4.08-.09 9.07-4.39 10.35l-.13.04c-.64.18-1.3.27-1.94.27-2.73 0-5.34-1.54-6.59-4.16l-3.11-6.54-6.33-13.32h.02-.02l-3.11-6.54a.83.83 0 0 0-1.5 0l-3.18 6.68c-4.85-1.03-9.73-4.03-12.49-7.68l9.83-20.68c1.195-2.554 3.761-4.184 6.58-4.18zM11.53 24.07c3.73-1.51 7.98.29 9.49 4.03.39.97.95 1.92 1.64 2.83l.01.01.33.42c.03.04.06.07.09.11l.09.11c.05.05.09.11.14.16.01.01.02.02.02.03l-.02-.03c.19.23.4.45.61.67.01.01.01.02.02.02a19.51 19.51 0 0 0 2.29 2.03 26.04 26.04 0 0 0 1.2.86c.04.02.07.05.11.07 2.31 1.52 4.96 2.66 7.6 3.22 1.12.24 2.24.37 3.33.38h.14c1.45 0 2.9-.18 4.32-.52l6.33 13.32c-3.42 1.15-7.01 1.78-10.65 1.78-3.28 0-6.6-.57-9.82-1.6l-3.03 6.37c-.855 1.798-2.408 3.168-4.299 3.791s-3.954.446-5.711-.491c-3.48-1.85-4.75-6.21-3.06-9.77l3.32-6.98c-3.75-3.17-6.74-7.02-8.47-11.2l-.05-.13c-1.5-3.73.3-7.98 4.03-9.49z"/><path id="C" d="M55.3 30.53c-3.19 3.91-7.62 6.81-12.36 7.94l6.33 13.32c4.62-1.56 8.94-4.08 12.67-7.31L55.3 30.53z"/><path id="D" d="M68.48 15.29a7.29 7.29 0 0 0-8.58 5.72c-.7 3.5-2.34 6.76-4.6 9.53l6.63 13.96c6.12-5.31 10.64-12.54 12.26-20.63.79-3.96-1.77-7.8-5.71-8.58"/><path id="E" d="M42.94 38.47c-1.42.34-2.87.52-4.32.52-1.13 0-2.3-.13-3.47-.38-4.85-1.03-9.73-4.03-12.49-7.68-.69-.91-1.25-1.86-1.64-2.83-1.51-3.73-5.76-5.53-9.49-4.03C7.8 25.58 6 29.83 7.5 33.56c1.71 4.24 4.73 8.13 8.52 11.33a37.84 37.84 0 0 0 12.77 7.08c3.21 1.03 6.54 1.6 9.82 1.6 3.64 0 7.23-.63 10.65-1.78l-6.32-13.32z"/></defs></svg>