<svg xmlns="http://www.w3.org/2000/svg" width="500" height="500" xmlns:v="https://vecta.io/nano"><defs><linearGradient id="A" x1="50%" x2="25.7%" y1="100%" y2="8.7%"><stop offset="0" stop-color="#eb6f07"/><stop offset="1" stop-color="#fab743"/></linearGradient><linearGradient id="B" x1="81%" x2="40.5%" y1="83.7%" y2="29.5%"><stop offset="0" stop-color="#d96504"/><stop offset="1" stop-color="#d96504" stop-opacity="0"/></linearGradient><linearGradient id="C" x1="42%" x2="84%" y1="8.7%" y2="79.9%"><stop offset="0" stop-color="#eb6f07"/><stop offset="1" stop-color="#eb720a" stop-opacity="0"/></linearGradient><linearGradient id="D" x1="50%" x2="25.7%" y1="100%" y2="8.7%"><stop offset="0" stop-color="#ee6f05"/><stop offset="1" stop-color="#fab743"/></linearGradient><linearGradient id="E" x1="-33.2%" x2="91.7%" y1="100%" y2="0%"><stop offset="0" stop-color="#d96504" stop-opacity=".8"/><stop offset=".498" stop-color="#d96504" stop-opacity=".2"/><stop offset="1" stop-color="#d96504" stop-opacity="0"/></linearGradient><linearGradient id="F" x1="50%" x2="25.7%" y1="100%" y2="8.7%"><stop offset="0" stop-color="#ffa95f"/><stop offset="1" stop-color="#ffebc8"/></linearGradient><linearGradient id="G" x1="8.1%" x2="96.5%" y1="1.1%" y2="48.8%"><stop offset="0" stop-color="#fff" stop-opacity=".5"/><stop offset="1" stop-color="#fff" stop-opacity=".1"/></linearGradient><linearGradient id="H" x1="-13.7%" y1="104.2%" y2="46.2%"><stop offset="0" stop-color="#fff" stop-opacity=".5"/><stop offset="1" stop-color="#fff" stop-opacity=".1"/></linearGradient></defs><path fill="url(#A)" d="M146.784 67.36l49 88.4-45 81a26 26 0 0 0 0 25.3l45 81.2-49 88.4a51.99 51.99 0 0 1-22-20.7l-78-135.5a52.2 52.2 0 0 1 0-52l78-135.5c5.138-8.888 12.793-16.056 22-20.6z"/><path fill="url(#B)" d="M150.784 236.86a26 26 0 0 0 0 25.2l45 81.2-49 88.4a51.99 51.99 0 0 1-22-20.7l-78-135.5c-6.2-10.7 28.5-23.5 104-38.5v-.1z" opacity=".7"/><path fill="url(#C)" d="M151.784 76.26l44 79.5-7.3 12.7-38.8-65.7c-11.2-18.3-28.3-8.8-49.7 28.2l3.2-5.5 21.6-37.5a51.99 51.99 0 0 1 21.8-20.6l5.1 8.9h.1z" opacity=".5"/><path fill="url(#D)" d="M370.784 87.96l78 135.5c9.3 16 9.3 36 0 52l-78 135.5c-9.283 16.078-26.435 25.988-45 26h-78l97-174.9c4.342-7.839 4.342-17.362 0-25.2l-97-174.9h78a52 52 0 0 1 45 26z"/><path fill="url(#E)" d="M321.784 436.36l-77 .7 93.2-175.8a27 27 0 0 0 0-25.4l-93.2-173.9h17.6l97.8 173.1c4.715 8.32 4.677 18.515-.1 26.8l-62.7 110c-19 33.4-10.8 54.9 24.4 64.5z"/><path fill="url(#F)" d="M169.784 436.96c-8 0-16-1.9-23-5.3l96.2-173.5c3-5.4 3-12 0-17.4l-96.2-173.4c7.15-3.541 15.02-5.389 23-5.4h78l97 174.9c4.342 7.838 4.342 17.361 0 25.2l-97 174.9h-78z"/><path fill="url(#G)" d="M337.984 240.76l-99.2-178.8h9l97 174.9c4.342 7.838 4.342 17.361 0 25.2l-97 174.9h-9l99.2-178.8c3-5.4 3-12 0-17.4z" opacity=".6"/><path fill="url(#H)" d="M242.984 240.76l-96.2-173.4c3-1.6 6.6-2.8 10-3.8l94 173.3c4.342 7.838 4.342 17.361 0 25.2l-95.5 172.9c-3.4-1-5.2-1.7-8.4-3.2l96-173.5c3-5.4 3-12 0-17.4l.1-.1z" opacity=".6"/></svg>