<svg width="114" height="114" viewBox="0 0 114 114" fill="none" xmlns="http://www.w3.org/2000/svg">
<path d="M26.4945 56.1789C27.8169 53.8713 27.0066 50.9492 24.6847 49.6522C22.3628 48.3552 19.4084 49.1744 18.086 51.482L2.56299 78.5695C1.24058 80.8771 2.05086 83.7992 4.3728 85.0962C6.69473 86.3932 9.64906 85.574 10.9715 83.2664L26.4945 56.1789Z" fill="#BAE94A"/>
<path d="M59.9535 35.4094C61.2759 33.1018 60.4656 30.1797 58.1437 28.8826C55.8218 27.5856 52.8674 28.4048 51.545 30.7124L36.022 57.8C34.6996 60.1075 35.5098 63.0297 37.8318 64.3267C40.1537 65.6237 43.108 64.8045 44.4304 62.4969L59.9535 35.4094Z" fill="#BAE94A"/>
<path d="M111.438 35.4103C112.76 33.1028 111.95 30.1807 109.628 28.8836C107.306 27.5866 104.352 28.4058 103.029 30.7134L87.5063 57.8009C86.1839 60.1085 86.9942 63.0306 89.3162 64.3277C91.6381 65.6247 94.5924 64.8055 95.9148 62.4979L111.438 35.4103Z" fill="#BAE94A"/>
<path d="M77.9711 56.1789C79.2935 53.8713 78.4832 50.9492 76.1613 49.6522C73.8393 48.3552 70.885 49.1744 69.5626 51.482L54.0395 78.5695C52.7171 80.8771 53.5274 83.7992 55.8494 85.0962C58.1713 86.3932 61.1256 85.574 62.448 83.2664L77.9711 56.1789Z" fill="#BAE94A"/>
</svg>
