<svg width="24" height="24" viewBox="0 0 24 24" fill="none" xmlns="http://www.w3.org/2000/svg">
<path d="M11.9816 4C10.3498 4 8.8334 4.48493 7.56519 5.31702H16.3975C15.1293 4.48493 13.6129 4 11.9816 4Z" fill="#C0F910"/>
<path d="M18.3942 7.18152H5.56561C5.31698 7.50815 5.09436 7.85303 4.90002 8.21662H19.0597C18.865 7.85303 18.6423 7.50815 18.3942 7.18152Z" fill="#C0F910"/>
<path d="M11.9811 19.9667C13.5257 19.9667 14.9673 19.5333 16.1908 18.7802H7.76904C8.99255 19.5306 10.4341 19.9667 11.9788 19.9667H11.9811Z" fill="#C0F910"/>
<path d="M16.0996 15.8806H4.97534C5.17926 16.2442 5.41374 16.5891 5.67149 16.9157H17.1401L17.7473 17.5193C18.1082 17.158 18.8559 16.1835 18.9873 15.8806H16.0996Z" fill="#C0F910"/>
<path d="M12.0773 11.883H19.9973C19.995 11.6244 19.859 10.4196 19.7746 10.0815H4.18293C4.10082 10.4196 4.03741 10.7645 4 11.1162H11.3082L12.0796 11.883H12.0773Z" fill="#C0F910"/>
<path d="M13.1836 12.9811H4.01648C4.06119 13.3328 4.12688 13.6804 4.21584 14.0162H14.2247L14.9956 14.783H19.4914C19.6251 14.382 19.9225 13.3095 19.9462 12.9811H13.1836Z" fill="#C0F910"/>
</svg>
