<svg id="Layer_1" data-name="Layer 1" xmlns="http://www.w3.org/2000/svg" xmlns:xlink="http://www.w3.org/1999/xlink" viewBox="0 0 102.394 128">
  <defs>
    <linearGradient id="linear-gradient" x1="1.6499" y1="-844.4095" x2="76.0133" y2="-929.2378" gradientTransform="matrix(1, 0, 0, -1, 0, -790)" gradientUnits="userSpaceOnUse">
      <stop offset="0" stop-color="#ffc164"/>
      <stop offset="0.5052" stop-color="#d8d3ff"/>
      <stop offset="1" stop-color="#64e3ff"/>
    </linearGradient>
    <linearGradient id="linear-gradient-2" x1="27.0274" y1="-779.4894" x2="101.3586" y2="-864.3132" xlink:href="#linear-gradient"/>
  </defs>
  <g id="logoMark">
    <path id="logoMark_PathItem_" data-name="logoMark &lt;PathItem&gt;" d="M87.3177,93.9886A67.8242,67.8242,0,0,1,32.8341,53.2077a17.0674,17.0674,0,1,0-27.83,18.6081,19.1461,19.1461,0,0,1,0,27.0456,17.0711,17.0711,0,1,0,24.135,0,19.123,19.123,0,0,1-4.3495-20.3087A67.722,67.722,0,0,1,69.56,117.47,17.0667,17.0667,0,1,0,87.3177,93.9886Z" style="fill: url(#linear-gradient)"/>
    <path id="logoMark_PathItem_2" data-name="logoMark &lt;PathItem&gt;" d="M97.39,29.1386a17.0711,17.0711,0,1,0-24.135,0,19.123,19.123,0,0,1,4.3495,20.3087A67.7222,67.7222,0,0,1,32.8341,10.53a17.0666,17.0666,0,1,0-17.7579,23.481A67.6762,67.6762,0,0,1,69.5271,74.76,17.0673,17.0673,0,1,0,97.3576,56.1515,19.1362,19.1362,0,0,1,97.39,29.1386Z" style="fill: url(#linear-gradient-2)"/>
  </g>
</svg>
