<svg xmlns="http://www.w3.org/2000/svg" viewBox="0 0 36 36" xmlns:v="https://vecta.io/nano"><path d="M29.546 30.937c-.319 0-.637-.158-.835-.476a1.02 1.02 0 0 1 .318-1.39l1.945-1.231h.041c1.032-.596 1.708-1.748 1.708-2.939V12.072c0-1.193-.636-2.343-1.708-2.94h-.041L19.893 2.221c-.477-.277-.913-.08-1.072 0a1.1 1.1 0 0 0-.557.954v14.497c0 1.073.557 2.026 1.43 2.582.914.556 1.986.595 2.94.118l2.74-1.35c.477-.238 1.073-.04 1.35.437.239.477.041 1.073-.436 1.351l-2.74 1.35c-1.55.794-3.377.715-4.886-.238-1.469-.913-2.383-2.503-2.383-4.25V3.175c0-1.113.596-2.105 1.549-2.661s2.106-.558 3.098 0h.04l11.081 6.911c1.669.953 2.661 2.74 2.661 4.647V24.94a5.42 5.42 0 0 1-2.661 4.647l-1.946 1.231c-.199.08-.358.119-.555.119zm-14.379 4.926a2.94 2.94 0 0 1-1.509-.398l-9.414-5.321c-1.788-1.034-2.939-2.979-2.939-5.085v-9.015c0-2.662 1.43-5.125 3.694-6.435l6.632-3.892a.98.98 0 0 1 1.351.357.98.98 0 0 1-.357 1.351l-6.633 3.892c-1.669.953-2.701 2.78-2.701 4.727v9.015a3.89 3.89 0 0 0 1.906 3.337l9.414 5.322c.476.278.913.08 1.072 0s.516-.357.516-.914v-6.791c0-.556.437-.994.994-.994a.98.98 0 0 1 .992.994v6.791c0 1.113-.556 2.105-1.509 2.661-.437.28-.993.398-1.509.398zm14.458-17.039c.548 0 .992-.445.992-.993s-.444-.993-.992-.993-.993.445-.993.993.444.993.993.993z"/></svg>