<svg xmlns="http://www.w3.org/2000/svg" width="156" height="156" fill="none" xmlns:v="https://vecta.io/nano"><path d="M134.901 81.327l-1 2.1c-.7 1.5-1.6 3-2.5 4.3v.1l-.2.2-.1.3-2.2 3.7a38 38 0 0 1-2.2-8l-.4-1.2-.5-1.3c-1-2.6-2-5.1-.1-7.4l.2-.3.5-.3.5-.2h.4c1 3 1.3 6 .7 9 0 .4.2.8.5.8h.2c.2 0 .7-.2.7-.7.3-3.2.5-6.5-.7-9.6l.2-.5.1-.3.2-.2c.2-.4.5-.6.8-.6h.6l.3.1.3.1 1.5 1a8.01 8.01 0 0 1 1.887 2.735c.43 1.033.639 2.146.613 3.265l-.3 3v-.1zm-16.2 32.3l-4.5 3.1-1.1.7-2 1.3-.7.5.3-.2c1.6-3.1 4.1-4.8 6.7-4.8h.2c.3 0 .6-.2.7-.6v-.1c0-.3-.1-.5-.4-.6-3.225-1.558-6.797-2.257-10.371-2.029a20.8 20.8 0 0 0-10.029 3.329c-3 2-6.4 5-6 8.5.1 2.2 1.5 3.6 4 4.6l-11.9 4.3c-.372-.546-.884-.982-1.482-1.264s-1.26-.397-1.918-.336c-.664.067-1.296.318-1.826.724s-.936.952-1.174 1.576a35.2 35.2 0 0 1-7.7-2.1l.2-.1h.2l.2-.2v-.1l.2-.2v-.7a1 1 0 0 0-.2-.5.69.69 0 0 0-.23-.15.71.71 0 0 0-.27-.05h-.1c-1.5 0-2.7-.5-4-1.3-1.6-1.4-3.2-3-4.4-5l-.7-.9c-1-1.3-2.2-2.5-3.4-3.7-.843-.689-1.836-1.169-2.9-1.4h-1.3l-.6.3-.4.5c-.248.302-.45.639-.6 1l-.2.4v.1l-.1.2c-.696-.656-1.468-1.227-2.3-1.7l-3.2-2-1.6-1a83.01 83.01 0 0 1-7.8-5.6 3.4 3.4 0 0 0 .568-3.32c-.202-.555-.545-1.048-.995-1.431a3.4 3.4 0 0 0-1.573-.749 26.7 26.7 0 0 1-1.1-13.2c.5-5.4.7-9.8.7-13.8l1-1.5a11 11 0 0 0 .6-9c-.3-.7-.7-1.5-1.4-2.3v-.5c-.8-3.4-1-7-1-10.5h.5a2.7 2.7 0 0 0 2.1-1 2.8 2.8 0 0 0 .6-2.2 31 31 0 0 1 14.2 0c2 .5 4 1.4 6.3 2.9-.6 0-1 .2-1.5.4-1.9.8-3.3 2.4-4.5 3.8a.7.7 0 0 0-.1.7l.3.2a15 15 0 0 0 10.2-2l.3-.3a8 8 0 0 0 2.6.9l1.5.1 2.8.5a10.21 10.21 0 0 1 3.8 2.4c1.8 1.6 3.3 3.7 4.8 6.4l.2.6-.2-.2a7.3 7.3 0 0 0-4.2-1.3h-.6v.1h-.7a.6.6 0 0 0-.5.4c-.2.4 0 1 .3 1.4a12 12 0 0 0 3 4.5 6 6 0 0 0 2.7 1.6l.9.2 1.7.4.1 1.5c.4 2.7.7 5.5.8 8.3h-1.7c-2.7 0-5.5 0-8.3.2h-.4c-.8 0-1.8 0-2.3.5-.7.8-.2 2.5.5 4.5l.2.8a163.23 163.23 0 0 0 2.7 10c.746 2.124 1.347 4.295 1.8 6.5l.1.5c0 .8.2 1.6.8 2.2h.2c.7.5 1.7.6 2.6.6h.8c2.5.3 5 .3 7.4.1h2.8c1.3.1 2.6.2 4 0l.5-.1v-.5c0-1.6.4-3.2.8-4.7l4.1-16.6.2-.5c.4-1.1.7-2 .4-2.4-.2-1-1.1-1-1.5-1h-.2l-12.8-.1a15 15 0 0 0 4.6-3.7c.7-1 1.2-1.8 1.4-2.7l.3-2.2.1-1.5c0-.2 0-.4-.2-.6h-.6c-1.5.6-3 1.3-4.3 2.2a34.3 34.3 0 0 1 9-15c.8-.6 1.8-1 2.8-1.4 1-.3 1.8-.7 2.7-1.4 1-.8 1.8-1.6 2.6-2.5l1.3-1.4c3.1-2.9 7.9-3.2 11.7-3 4.8 0 9.5 1.5 13.5 4.1.2.5.5 1 .9 1.3.4.4.9.6 1.4.6.2 2.7 0 5.5-.2 8.1v.3c-1 1-1.7 2.2-2.3 3.5l-.1.3c-.4.7-.7 1.4-.9 2.2v1.4l.2.4v.3h-.2c-.6.2-1.2.4-1.6.8h-.2v.1c-.6.5-1 1.1-1.4 1.8v.3a6.7 6.7 0 0 0-.6 4.2l1 2.9.8 2.2.1.3.7 2.9c.6 2.7 1.5 5.4 2.7 7.9v.4h.2a.9.9 0 0 0 .9.3l.4-.2.3-.4v-.2l.2-.1-.1-.2.4-1.6v4.5c0 2.2 0 4.3-.5 6.4-.405.199-.765.48-1.058.824s-.511.744-.642 1.176c-.313.846-.277 1.781.1 2.6-3.367 1.51-6.61 3.282-9.7 5.3h.1zm-10.5 7.3l-.3.1v.3l-.4.9v.5c-.3 1.5-.8 3-1.6 4.1a4 4 0 0 1-1.13 1.297c-.466.346-1.002.585-1.57.703-1 0-2.2-.2-2.5-1.3v-.1l-.2-.1v-.2c0-1.4.3-3.3 1-4.6.6-1.4 1.7-2.5 2.7-3.6.2-.2.2-.3.2-.5s0-.4-.2-.5c-.3-.3-.7-.3-1 0-1.235 1.139-2.252 2.495-3 4-.6 1.6-1 3.2-1 4.8h-.3l-.1-.1v-.1h-1a7.01 7.01 0 0 1-3.2-1.2c-1.7-1.2-2.2-3-1.3-4.8 1.4-3 5-5.1 6.9-6.1 4.6-2.4 10-2.8 14.8-1.2-3.6 1.2-5.7 5-6.6 7.1l-.1.4v.2h-.1zm-77.5-44h.5v1.5l-.5-1.5zm22.7-42l.8-.6-.1.2v.2h-.2c-.7.7-1.4 1-2 1.5l1.6-1.5-.1.2zm54.3-8.2l.5-.4c1 0 2.2 1 3.7 2.8 1.3 1.6 2.4 3.3 3.2 5.2l.3.5c.7 1.5 1.3 2.9 2.1 4.1l-.3-.1-2.6-.8c-1-.2-2.2-.2-3.3-.2a15.17 15.17 0 0 1-6.6-1.5c-.7-.4-1.1-1.2-1.1-2.3v-.3a4.27 4.27 0 0 1 1-2.7l.2-.2.2-.2.2-.1a2 2 0 0 1 1-.2h.5l.4.1c.7 1 1.6 2 2.6 3h.5l.4-.2.2-.5c0-.2 0-.3-.2-.4-1-.8-1.8-1.8-2.5-3-.3-.6-.5-1.3-.5-2l.1-.7v.1zm-49.6 6.7l.5-.3.3-.2h.2l.6-.4c1.1-.1 2.1-.6 3.3-1l3.7-2.3c.3-.1.4-.3.4-.6 0-.2-.1-.5-.4-.6a.4.4 0 0 0-.3-.135.4.4 0 0 0-.165.035c-.052.023-.098.058-.135.1-2.2 1.5-4.6 3-7.4 3.3h-.2l-.6-.2h-.4c-.7-.3-1.3-.6-1.4-1.1l-.1-.5c0-.3 0-.6.2-.8.8-1.9 3.2-2.2 5-2.3l2-.1c2.3-.3 4.6-.4 6.8-1.3l-.3 1.7v.4l-.3 1.4c-.2 1-.4 2-.9 2.9-.578 1.173-1.282 2.28-2.1 3.3a13.9 13.9 0 0 1-6 4.6c-1.2.4-2.5.5-3.7.2-1-.3-1.5-1-1.5-2v-1.1l.2-.2v-.2l.1-.2v-.1l.3-.3v-.1c.6-.8 1.4-1.4 2.3-1.8v-.1zm-37.1 25.6l.3-2.3 1.3 1 .4.3.1.1c1 .8 2 1.3 3 1.7 2 .8 3.8 2 5.4 3.3l.2.2.4.4v.1l.1.1a7.7 7.7 0 0 1 1.8 5.3c0 1.4-.4 2.8-1 4-.3.6-.7 1-1.2 1.5 0 .2-.1.2-.3.2l-.5.1c-.5-.1-.8-.7-1-1.4l-.1-.4v-.2l-.4-1.2-.4-1.6c-.2-1-.6-2-1-3a.8.8 0 0 0-.7-.4c-.4 0-.7.1-.9.4s-.2.6 0 1c.4.8.7 1.7.9 2.6l.3 1.4.4 1.4v.3c0 1.1-.6 2.6-2.3 2.6-1 0-2.1-.3-3.1-1-1.7-1.1-2.6-3.3-2.7-6.2-.1-3.4.2-7 1-10.3zm34.1-5.7a5 5 0 0 1 2-.6l-1.6 1c-.3.1-.3.6-.1.8.1.2.4.4.7.1h.1c.7-.5 1.4-1 2.3-1.1.5 0 1 .1 1.3.6-2.4 1.3-5.1 2-7.9 1.7 1-1 1.9-1.9 3.1-2.5h.1zm17.9 11.7h.6l1.1.4a7 7 0 0 1 3.5 3l.5 1.7-2.3-2a.5.5 0 0 0-.7 0c-.1.2-.2.5 0 .7l2.6 2.1h-.4l-.5-.1-1.4-.4-1.1-1a15 15 0 0 1-3-4.2v-.2h1 .1zm5.2-19.8a8 8 0 0 1 2.3 2.2c.3.5.7 1 .7 1.6 0 .2 0 .7-.3.8h-.2c-1-1.7-2.4-3.2-4-4.4a.5.5 0 0 0-.7 0v.6c1.4 1.2 2.9 2.4 3.8 4.1v.2c-.4.8-1.5 1-2.3.8-1-.4-1.7-1.5-2.1-2.4l-.5-1.8a16 16 0 0 0-1.9-4.2c2.2.7 3.9 1.5 5.2 2.5zm9.9 28a8 8 0 0 1-1.4 4.5c-.9 1-1.9 1.9-3 2.5l2.1-3.2c.2-.2.2-.5 0-.7h-.6l-2.1 3.1.6-3.6a3.53 3.53 0 0 1 1.7-1.5l2.7-1.5v.4zm-37.2 48.5c2.3 2.5 5.2 4.4 8.4 5.4h.3c.1 0 .4 0 .5-.2.2-.2.3-.5.2-.8 0-.3-.3-.5-.6-.6-2.8-1-5.4-2.6-7.5-4.7v-.7l.3-.6v-.2l.1-.3.6-1.3c.5-.2 1.2 0 2.2.6l1 .8c1.3 1.2 2.4 2.7 3.4 4.1l.5.6c1.3 1.7 3 3.8 5.2 5-1 .2-2.2.2-3.3.2h-.1c-4.2 0-8.3-1-12.1-2.7l-.4-.4c-.334-.334-.574-.75-.697-1.207a2.7 2.7 0 0 1-.003-1.393c.3-.9 1-1.5 2-1.6zm43.5-31l-3 11.6a24 24 0 0 0-.8 4.5c-1 .2-2 0-3.2 0h-3c-3.4.3-6.7.2-10-.4-.3-.2-.4-1-.4-1.5l-.2-.6-1.8-6.6-1.5-4.6-.5-2.7h.3l2.3.1 11.6.2h10.1.1zm.6-2.6h-.3a24.33 24.33 0 0 1-3.8.3c-3.7.1-7.3-.1-11-.3l-5.5-.1-5 .3v-.5l-.4-.9c-.367-1.063-.57-2.176-.6-3.3.2-.2 1 0 1.3 0h.5l2.8-.2h5.4l17.2.1h.7l-.4 1.6-.3.8-.6 2.2zm4.4-35l-.7 1-.3.2c.3-1.6.5-3.2.3-5 0-.5-.9-.5-.8 0 0 2 0 3.7-.6 5.6-.3-.1-.6-.6-.7-2.6v-.1c0-1 0-2.2.3-3.2l.5-1.9.8-2.1.1.3c1 1.5 2 3 2.1 5a4.64 4.64 0 0 1-1 2.9v-.1zm17.2-5.4a24 24 0 0 0-12.5 1.6c-.971.519-1.85 1.195-2.6 2v-.2c0-1.2-.1-2.6-.8-4l-1.4-2.4-1.1-2a.8.8 0 0 0-.8-.2c-.2.1-.3.2-.3.5v.2c.1 1.2-.3 2.4-.7 3.5-.3 1-.7 2.2-.9 3.6a15 15 0 0 0 .2 3.7c.1.5.3 1.1.7 1.5l-1.3.6-1.4.5a15.1 15.1 0 0 0-4.6 4.4 34.1 34.1 0 0 0-5.7 10.7c.5-7.1.5-14.5-2.2-21l.3-.1a2 2 0 0 0 .7-2c-.1-1.4-1.3-2.7-2.1-3.6a21.2 21.2 0 0 0-8.2-4l-.7.1a.6.6 0 0 0 0 .8c1.1 1.6 2 3.4 2.5 5.3l1.3 3.2c.5.6 1.6 1.8 3 1.8.8 0 1.5-.2 2-.7 2 5 2.2 10.7 2.2 15.2a131.97 131.97 0 0 1-1 11.6c-.3-3.5-.5-7.1-1.8-10.5a26.4 26.4 0 0 0-7.2-11.1 10.9 10.9 0 0 0-5.4-2.4l-1.4-.2a10.8 10.8 0 0 1-5.7-2 29 29 0 0 0-11.9-5.3 40.17 40.17 0 0 0-9.8 0l7.5-5 3-1.5 2-1c1-.4 1.9-1 2.8-1.7 0 .8.3 1.5.8 2.1a3 3 0 0 0 1.8 1.3c.7.2 1.4.4 2.1.4a9 9 0 0 0 4.4-1.2c2-1.1 4-2.7 5.4-4.6a14 14 0 0 0 3.2-6.6v-.8h.2v-.2c2.8-2 6-3.6 9.2-5a2.9 2.9 0 0 0 2.4 1.7 2.8 2.8 0 0 0 2.6-1.3c2.4 1 4.8 1.8 7.3 2.6l.6.3c3.2 1 6.4 2.4 9.4 4l-.5 1c-.8 2.2-.7 5.1 1.5 6.5 2.5 1.6 5.7 1.8 7.8 1.8 1.6 0 3.2.3 5 1l11.9 10.1-.4.7c-3.481-2.059-7.374-3.323-11.4-3.7zm11.2 22.8v-.6c0-.7.3-1.4.6-2.1l.2-.3c.3-.8.7-1.6 1.2-2.2v4l-.8.3c-.5.2-.9.5-1.2 1v-.1zm9.1 6.6c-.2-2-1-3.9-2.5-5.3v-.1l-1-1h-.1l-.5-.5-.3-.1-.6-.4c0-2.2.2-4.5.3-6.5v-.1c.2-3 .5-5.8.2-8.8.418-.376.708-.874.83-1.423s.068-1.123-.152-1.641a2.7 2.7 0 0 0-2.678-1.636l-9.5-8.1c.2-.4.2-.7-.1-1-1.611-1.928-2.925-4.085-3.9-6.4l-.1-.3-1.4-2.8c-.8-1.4-1.8-2.8-2.9-4-1-1-2.6-2.5-4.4-2.5h-.3c-.7.2-1.3.5-1.6 1.1-.5.8-.5 1.8-.3 2.6-1.7-.9-3.6-1.3-5.5-1.3-2.2-1-4.3-2-6.5-2.7l-.5-.1c-2.6-.9-5.1-1.7-7.5-2.8a3 3 0 0 0-1-1.6 2.8 2.8 0 0 0-2.697-.606 2.8 2.8 0 0 0-1.903 2.006c-3 1.2-6 2.7-8.7 4.5v-.2c0-.5.2-1.4.5-1.6.4-.4.3-1 0-1.3a.8.8 0 0 0-1.1-.1c-2 1.3-4.3 1.7-6.7 2h-1.6c-1.8.1-3.7.2-5.4 1-2 .7-3.7 2.7-3.1 5a3.2 3.2 0 0 0 1.8 2.1l-.1.1c-1 .4-2.2.7-3 1.5-.8.5-1.4 1-2 1.8l-.8 1.4-.2.1-.6.4h-.3l-1.1.6-.2.1c-1.2.5-2.4 1-3.6 1.8-3.2 2-6.3 4.2-9.3 6.4l-.2.2c-.4-.2-.8-.4-1.3-.4a2.7 2.7 0 0 0-2.1 1 2.8 2.8 0 0 0-.5 2.4l-.1.4.1 8v.7l.3 1.4c-1.3-.9-2.6-1.6-4-2.2a15.3 15.3 0 0 1-3.7-2.2c-.6-.5-1.7-1.3-1.7-1.8v-.5h-.1c-.2-.2-.5-.4-.8-.4-.2 0-.6.1-.8.4h-.2v.5c-.1 1.5-.4 3-.7 4.6v.4l-.7 5.5a18 18 0 0 0 .6 8.9 7.4 7.4 0 0 0 7 4.9 3 3 0 0 0 2.2-.8 3 3 0 0 0 1-1 14 14 0 0 1 1.6 7.7c0 1.6 0 3.1-.2 4.7v1.9a26 26 0 0 0 1.2 12.3c-.6.4-1 1-1.3 1.7a3.4 3.4 0 0 0 1 3.8 3 3 0 0 0 2 .7h.4c2.7 2.4 5.5 4.2 8 5.8l2 1.3.5.3 2 1.3.7.3c.7.6 1.7 1.2 2.5 2h-.3l-.9.7a4 4 0 0 0-1.4 3.8c.3 2.6 2.8 3.7 5.1 4.5 4.5 1.5 9.4 2 14 1.4 3.5 1.8 7.2 3 11 3.6 0 1 .5 1.9 1.2 2.5.354.317.767.56 1.215.717s.923.222 1.397.194a3.6 3.6 0 0 0 2.487-1.211 4 4 0 0 0 1-2.7v-.5l14.1-5.3.3-.1h.6c.3.7.8 1.3 1.4 1.6.6.4 1.3.6 2 .6h.5c1.8-.3 3.3-1.6 4.4-3.8l1.1-3h.2l.2-.1.1-.2 3.1-2.2h.2l1.7-1.1 1.4-1 4-2.8c3.7-2.4 7.4-4.4 11.1-6h.5c.8 0 1.6-.3 2.2-.8.585-.534.966-1.257 1.076-2.042s-.059-1.584-.476-2.258c-.4-.7-1-1.2-1.8-1.4.4-2 .4-4.2.4-6.3v-.7c-.1-2.9.1-5.7.7-8.5a28 28 0 0 0 3.2-6.2c.5-1.6.7-3.2.4-4.7" fill="#fff"/></svg>