<svg width="156" height="156" viewBox="0 0 156 156" fill="none" xmlns="http://www.w3.org/2000/svg">
  <path d="M134.901 81.3269L133.901 83.4269C133.201 84.9269 132.301 86.4269 131.401 87.7269V87.8269L131.201 88.0269L131.101 88.3269L128.901 92.0269C127.878 89.4485 127.14 86.7659 126.701 84.0269L126.301 82.8269L125.801 81.5269C124.801 78.9269 123.801 76.4269 125.701 74.1269L125.901 73.8269L126.401 73.5269L126.901 73.3269H127.301C128.301 76.3269 128.601 79.3269 128.001 82.3269C128.001 82.7269 128.201 83.1269 128.501 83.1269H128.701C128.901 83.1269 129.401 82.9269 129.401 82.4269C129.701 79.2269 129.901 75.9269 128.701 72.8269L128.901 72.3269L129.001 72.0269L129.201 71.8269C129.401 71.4269 129.701 71.2269 130.001 71.2269H130.601L130.901 71.3269L131.201 71.4269L132.701 72.4269C133.514 73.1964 134.157 74.128 134.588 75.1616C135.018 76.1951 135.227 77.3075 135.201 78.4269L134.901 81.4269V81.3269ZM118.701 113.627L114.201 116.727L113.101 117.427L111.101 118.727L110.401 119.227L110.701 119.027C112.301 115.927 114.801 114.227 117.401 114.227H117.601C117.901 114.227 118.201 114.027 118.301 113.627V113.527C118.301 113.227 118.201 113.027 117.901 112.927C114.676 111.369 111.104 110.67 107.53 110.898C103.956 111.126 100.502 112.272 97.5008 114.227C94.5008 116.227 91.1008 119.227 91.5008 122.727C91.6008 124.927 93.0008 126.327 95.5008 127.327L83.6008 131.627C83.2286 131.081 82.717 130.645 82.119 130.363C81.5211 130.082 80.8588 129.966 80.2008 130.027C79.5367 130.094 78.9044 130.345 78.3746 130.751C77.8449 131.158 77.4385 131.703 77.2008 132.327C74.6008 131.927 72.0008 131.227 69.5008 130.227L69.7008 130.127H69.9008L70.1008 129.927V129.827L70.3008 129.627V128.927C70.2811 128.745 70.2119 128.572 70.1008 128.427C70.0348 128.362 69.9566 128.311 69.8708 128.277C69.785 128.243 69.6932 128.226 69.6008 128.227H69.5008C68.0008 128.227 66.8008 127.727 65.5008 126.927C63.9008 125.527 62.3008 123.927 61.1008 121.927L60.4008 121.027C59.4008 119.727 58.2008 118.527 57.0008 117.327C56.1581 116.638 55.1644 116.158 54.1008 115.927H52.8008L52.2008 116.227L51.8008 116.727C51.553 117.029 51.3509 117.366 51.2008 117.727L51.0008 118.127V118.227L50.9008 118.427C50.2047 117.771 49.4325 117.2 48.6008 116.727L45.4008 114.727L43.8008 113.727C41.0949 112.012 38.4906 110.143 36.0008 108.127C36.3758 107.671 36.6254 107.124 36.725 106.542C36.8246 105.96 36.7709 105.362 36.569 104.807C36.3672 104.252 36.0242 103.759 35.5738 103.376C35.1235 102.994 34.5814 102.736 34.0008 102.627C32.5312 98.3892 32.1529 93.8495 32.9008 89.4269C33.4008 84.0269 33.6008 79.6269 33.6008 75.6269L34.6008 74.1269C35.3312 72.7544 35.7623 71.2426 35.8657 69.6912C35.9692 68.1399 35.7425 66.5843 35.2008 65.1269C34.9008 64.4269 34.5008 63.6269 33.8008 62.8269V62.3269C33.0008 58.9269 32.8008 55.3269 32.8008 51.8269H33.3008C33.7033 51.8273 34.1007 51.7377 34.464 51.5646C34.8274 51.3916 35.1474 51.1396 35.4008 50.8269C35.6496 50.5228 35.8316 50.1698 35.9349 49.7908C36.0383 49.4117 36.0607 49.0152 36.0008 48.6269C40.6704 47.5282 45.5312 47.5282 50.2008 48.6269C52.2008 49.1269 54.2008 50.0269 56.5008 51.5269C55.9008 51.5269 55.5008 51.7269 55.0008 51.9269C53.1008 52.7269 51.7008 54.3269 50.5008 55.7269C50.4235 55.8242 50.3735 55.9403 50.3559 56.0634C50.3384 56.1864 50.3539 56.3119 50.4008 56.4269L50.7008 56.6269C54.2305 57.1972 57.8478 56.4879 60.9008 54.6269L61.2008 54.3269C62.009 54.7748 62.8887 55.0793 63.8008 55.2269L65.3008 55.3269L68.1008 55.8269C69.5008 56.3269 70.8008 57.1269 71.9008 58.2269C73.7008 59.8269 75.2008 61.9269 76.7008 64.6269L76.9008 65.2269L76.7008 65.0269C75.4677 64.1723 74.0011 63.7183 72.5008 63.7269H71.9008V63.8269H71.2008C71.0882 63.8396 70.9815 63.8839 70.893 63.9546C70.8045 64.0254 70.7379 64.1198 70.7008 64.2269C70.5008 64.6269 70.7008 65.2269 71.0008 65.6269C71.6454 67.3357 72.6714 68.8747 74.0008 70.1269C74.7429 70.8904 75.6748 71.4426 76.7008 71.7269L77.6008 71.9269L79.3008 72.3269L79.4008 73.8269C79.8008 76.5269 80.1008 79.3269 80.2008 82.1269H78.5008C75.8008 82.1269 73.0008 82.1269 70.2008 82.3269H69.8008C69.0008 82.3269 68.0008 82.3269 67.5008 82.8269C66.8008 83.6269 67.3008 85.3269 68.0008 87.3269L68.2008 88.1269C69.0008 91.5269 69.9008 94.8269 70.9008 98.1269C71.6464 100.251 72.2478 102.422 72.7008 104.627L72.8008 105.127C72.8008 105.927 73.0008 106.727 73.6008 107.327H73.8008C74.5008 107.827 75.5008 107.927 76.4008 107.927H77.2008C79.7008 108.227 82.2008 108.227 84.6008 108.027H87.4008C88.7008 108.127 90.0008 108.227 91.4008 108.027L91.9008 107.927V107.427C91.9008 105.827 92.3008 104.227 92.7008 102.727L96.8008 86.1269L97.0008 85.6269C97.4008 84.5269 97.7008 83.6269 97.4008 83.2269C97.2008 82.2269 96.3008 82.2269 95.9008 82.2269H95.7008L82.9008 82.1269C84.6641 81.2105 86.2277 79.9528 87.5008 78.4269C88.2008 77.4269 88.7008 76.6269 88.9008 75.7269L89.2008 73.5269L89.3008 72.0269C89.3008 71.8269 89.3008 71.6269 89.1008 71.4269H88.5008C87.0008 72.0269 85.5008 72.7269 84.2008 73.6269C85.854 67.9331 88.9548 62.765 93.2008 58.6269C94.0008 58.0269 95.0008 57.6269 96.0008 57.2269C97.0008 56.9269 97.8008 56.5269 98.7008 55.8269C99.7008 55.0269 100.501 54.2269 101.301 53.3269L102.601 51.9269C105.701 49.0269 110.501 48.7269 114.301 48.9269C119.101 48.9269 123.801 50.4269 127.801 53.0269C128.001 53.5269 128.301 54.0269 128.701 54.3269C129.101 54.7269 129.601 54.9269 130.101 54.9269C130.301 57.6269 130.101 60.4269 129.901 63.0269V63.3269C128.901 64.3269 128.201 65.5269 127.601 66.8269L127.501 67.1269C127.101 67.8269 126.801 68.5269 126.601 69.3269V70.7269L126.801 71.1269V71.4269H126.601C126.001 71.6269 125.401 71.8269 125.001 72.2269H124.801V72.3269C124.201 72.8269 123.801 73.4269 123.401 74.1269V74.4269C122.751 75.725 122.541 77.1989 122.801 78.6269L123.801 81.5269L124.601 83.7269L124.701 84.0269L125.401 86.9269C126.001 89.6269 126.901 92.3269 128.101 94.8269V95.2269H128.301C128.408 95.3558 128.549 95.4521 128.708 95.5051C128.867 95.5581 129.038 95.5657 129.201 95.5269L129.601 95.3269L129.901 94.9269V94.7269L130.101 94.6269L130.001 94.4269L130.401 92.8269V97.3269C130.401 99.5269 130.401 101.627 129.901 103.727C129.496 103.926 129.136 104.207 128.843 104.551C128.551 104.895 128.332 105.295 128.201 105.727C127.888 106.573 127.924 107.508 128.301 108.327C124.934 109.837 121.691 111.609 118.601 113.627H118.701ZM108.201 120.927L107.901 121.027V121.327L107.501 122.227V122.727C107.201 124.227 106.701 125.727 105.901 126.827C105.623 127.336 105.237 127.779 104.771 128.124C104.305 128.47 103.769 128.709 103.201 128.827C102.201 128.827 101.001 128.627 100.701 127.527V127.427L100.501 127.327V127.127C100.501 125.727 100.801 123.827 101.501 122.527C102.101 121.127 103.201 120.027 104.201 118.927C104.401 118.727 104.401 118.627 104.401 118.427C104.401 118.227 104.401 118.027 104.201 117.927C103.901 117.627 103.501 117.627 103.201 117.927C101.966 119.066 100.949 120.422 100.201 121.927C99.6008 123.527 99.2008 125.127 99.2008 126.727H98.9008L98.8008 126.627V126.527H97.8008C96.6514 126.397 95.552 125.985 94.6008 125.327C92.9008 124.127 92.4008 122.327 93.3008 120.527C94.7008 117.527 98.3008 115.427 100.201 114.427C104.801 112.027 110.201 111.627 115.001 113.227C111.401 114.427 109.301 118.227 108.401 120.327L108.301 120.727V120.927H108.201ZM30.7008 76.9269H31.2008V78.4269L30.7008 76.9269ZM53.4008 34.9269L54.2008 34.3269L54.1008 34.5269V34.7269H53.9008C53.2008 35.4269 52.5008 35.7269 51.9008 36.2269L53.5008 34.7269L53.4008 34.9269ZM107.701 26.7269L108.201 26.3269C109.201 26.3269 110.401 27.3269 111.901 29.1269C113.201 30.7269 114.301 32.4269 115.101 34.3269L115.401 34.8269C116.101 36.3269 116.701 37.7269 117.501 38.9269L117.201 38.8269L114.601 38.0269C113.601 37.8269 112.401 37.8269 111.301 37.8269C109.001 37.8269 106.801 37.3269 104.701 36.3269C104.001 35.9269 103.601 35.1269 103.601 34.0269V33.7269C103.601 32.7269 104.001 31.7269 104.601 31.0269L104.801 30.8269L105.001 30.6269L105.201 30.5269C105.511 30.375 105.856 30.306 106.201 30.3269H106.701L107.101 30.4269C107.801 31.4269 108.701 32.4269 109.701 33.4269H110.201L110.601 33.2269L110.801 32.7269C110.801 32.5269 110.801 32.4269 110.601 32.3269C109.601 31.5269 108.801 30.5269 108.101 29.3269C107.801 28.7269 107.601 28.0269 107.601 27.3269L107.701 26.6269V26.7269ZM58.1008 33.4269L58.6008 33.1269L58.9008 32.9269H59.1008L59.7008 32.5269C60.8008 32.4269 61.8008 31.9269 63.0008 31.5269L66.7008 29.2269C67.0008 29.1269 67.1008 28.9269 67.1008 28.6269C67.1008 28.4269 67.0008 28.1269 66.7008 28.0269C66.6633 27.9844 66.6171 27.9503 66.5654 27.9269C66.5137 27.9036 66.4576 27.8915 66.4008 27.8915C66.3441 27.8915 66.288 27.9036 66.2362 27.9269C66.1845 27.9503 66.1384 27.9844 66.1008 28.0269C63.9008 29.5269 61.5008 31.0269 58.7008 31.3269H58.5008L57.9008 31.1269H57.5008C56.8008 30.8269 56.2008 30.5269 56.1008 30.0269L56.0008 29.5269C56.0008 29.2269 56.0008 28.9269 56.2008 28.7269C57.0008 26.8269 59.4008 26.5269 61.2008 26.4269L63.2008 26.3269C65.5008 26.0269 67.8008 25.9269 70.0008 25.0269L69.7008 26.7269V27.1269L69.4008 28.5269C69.2008 29.5269 69.0008 30.5269 68.5008 31.4269C67.9228 32.5999 67.2186 33.7065 66.4008 34.7269C64.8642 36.7852 62.7874 38.3774 60.4008 39.3269C59.2008 39.7269 57.9008 39.8269 56.7008 39.5269C55.7008 39.2269 55.2008 38.5269 55.2008 37.5269V36.4269L55.4008 36.2269V36.0269L55.5008 35.8269V35.7269L55.8008 35.4269V35.3269C56.4008 34.5269 57.2008 33.9269 58.1008 33.5269V33.4269ZM21.0008 59.0269L21.3008 56.7269L22.6008 57.7269L23.0008 58.0269L23.1008 58.1269C24.1008 58.9269 25.1008 59.4269 26.1008 59.8269C28.1008 60.6269 29.9008 61.8269 31.5008 63.1269L31.7008 63.3269L32.1008 63.7269V63.8269L32.2008 63.9269C33.4444 65.4052 34.0869 67.297 34.0008 69.2269C34.0008 70.6269 33.6008 72.0269 33.0008 73.2269C32.7008 73.8269 32.3008 74.2269 31.8008 74.7269C31.8008 74.9269 31.7008 74.9269 31.5008 74.9269L31.0008 75.0269C30.5008 74.9269 30.2008 74.3269 30.0008 73.6269L29.9008 73.2269V73.0269L29.5008 71.8269L29.1008 70.2269C28.9008 69.2269 28.5008 68.2269 28.1008 67.2269C28.03 67.1042 27.9279 67.0026 27.8049 66.9323C27.6819 66.862 27.5425 66.8256 27.4008 66.8269C27.0008 66.8269 26.7008 66.9269 26.5008 67.2269C26.3008 67.5269 26.3008 67.8269 26.5008 68.2269C26.9008 69.0269 27.2008 69.9269 27.4008 70.8269L27.7008 72.2269L28.1008 73.6269V73.9269C28.1008 75.0269 27.5008 76.5269 25.8008 76.5269C24.8008 76.5269 23.7008 76.2269 22.7008 75.5269C21.0008 74.4269 20.1008 72.2269 20.0008 69.3269C19.9008 65.9269 20.2008 62.3269 21.0008 59.0269ZM55.1008 53.3269C55.7178 52.9884 56.3994 52.7839 57.1008 52.7269L55.5008 53.7269C55.2008 53.8269 55.2008 54.3269 55.4008 54.5269C55.5008 54.7269 55.8008 54.9269 56.1008 54.6269H56.2008C56.9008 54.1269 57.6008 53.6269 58.5008 53.5269C59.0008 53.5269 59.5008 53.6269 59.8008 54.1269C57.4008 55.4269 54.7008 56.1269 51.9008 55.8269C52.9008 54.8269 53.8008 53.9269 55.0008 53.3269H55.1008ZM73.0008 65.0269H73.6008L74.7008 65.4269C76.1727 66.0031 77.4063 67.0604 78.2008 68.4269L78.7008 70.1269L76.4008 68.1269C76.3074 68.0353 76.1817 67.984 76.0508 67.984C75.9199 67.984 75.7943 68.0353 75.7008 68.1269C75.6008 68.3269 75.5008 68.6269 75.7008 68.8269L78.3008 70.9269H77.9008L77.4008 70.8269L76.0008 70.4269L74.9008 69.4269C73.6657 68.2108 72.6506 66.7897 71.9008 65.2269V65.0269H72.9008H73.0008ZM78.2008 45.2269C79.1071 45.7988 79.8892 46.5469 80.5008 47.4269C80.8008 47.9269 81.2008 48.4269 81.2008 49.0269C81.2008 49.2269 81.2008 49.7269 80.9008 49.8269H80.7008C79.7008 48.1269 78.3008 46.6269 76.7008 45.4269C76.6074 45.3353 76.4817 45.284 76.3508 45.284C76.2199 45.284 76.0943 45.3353 76.0008 45.4269V46.0269C77.4008 47.2269 78.9008 48.4269 79.8008 50.1269V50.3269C79.4008 51.1269 78.3008 51.3269 77.5008 51.1269C76.5008 50.7269 75.8008 49.6269 75.4008 48.7269L74.9008 46.9269C74.4735 45.4425 73.8336 44.0279 73.0008 42.7269C75.2008 43.4269 76.9008 44.2269 78.2008 45.2269ZM88.1008 73.2269C88.0966 74.8335 87.6087 76.4015 86.7008 77.7269C85.8008 78.7269 84.8008 79.6269 83.7008 80.2269L85.8008 77.0269C86.0008 76.8269 86.0008 76.5269 85.8008 76.3269H85.2008L83.1008 79.4269L83.7008 75.8269C84.1008 75.1269 84.7008 74.6269 85.4008 74.3269L88.1008 72.8269V73.2269ZM50.9008 121.727C53.2008 124.227 56.1008 126.127 59.3008 127.127H59.6008C59.7008 127.127 60.0008 127.127 60.1008 126.927C60.3008 126.727 60.4008 126.427 60.3008 126.127C60.3008 125.827 60.0008 125.627 59.7008 125.527C56.9008 124.527 54.3008 122.927 52.2008 120.827V120.127L52.5008 119.527V119.327L52.6008 119.027L53.2008 117.727C53.7008 117.527 54.4008 117.727 55.4008 118.327L56.4008 119.127C57.7008 120.327 58.8008 121.827 59.8008 123.227L60.3008 123.827C61.6008 125.527 63.3008 127.627 65.5008 128.827C64.5008 129.027 63.3008 129.027 62.2008 129.027H62.1008C57.9008 129.027 53.8008 128.027 50.0008 126.327L49.6008 125.927C49.2668 125.593 49.0264 125.177 48.9036 124.72C48.7808 124.264 48.7798 123.784 48.9008 123.327C49.2008 122.427 49.9008 121.827 50.9008 121.727ZM94.4008 90.7269L91.4008 102.327C90.9916 103.798 90.7237 105.305 90.6008 106.827C89.6008 107.027 88.6008 106.827 87.4008 106.827H84.4008C81.0008 107.127 77.7008 107.027 74.4008 106.427C74.1008 106.227 74.0008 105.427 74.0008 104.927L73.8008 104.327L72.0008 97.7269L70.5008 93.1269L70.0008 90.4269H70.3008L72.6008 90.5269L84.2008 90.7269H94.3008H94.4008ZM95.0008 88.1269H94.7008C93.4008 88.3269 92.2008 88.4269 90.9008 88.4269C87.2008 88.5269 83.6008 88.3269 79.9008 88.1269L74.4008 88.0269L69.4008 88.3269V87.8269L69.0008 86.9269C68.6333 85.864 68.431 84.7511 68.4008 83.6269C68.6008 83.4269 69.4008 83.6269 69.7008 83.6269H70.2008L73.0008 83.4269H78.4008L95.6008 83.5269H96.3008L95.9008 85.1269L95.6008 85.9269L95.0008 88.1269ZM99.4008 53.1269L98.7008 54.1269L98.4008 54.3269C98.7008 52.7269 98.9008 51.1269 98.7008 49.3269C98.7008 48.8269 97.8008 48.8269 97.9008 49.3269C97.9008 51.3269 97.9008 53.0269 97.3008 54.9269C97.0008 54.8269 96.7008 54.3269 96.6008 52.3269V52.2269C96.6008 51.2269 96.6008 50.0269 96.9008 49.0269L97.4008 47.1269L98.2008 45.0269L98.3008 45.3269C99.3008 46.8269 100.301 48.3269 100.401 50.3269C100.401 51.3269 100.101 52.3269 99.4008 53.2269V53.1269ZM116.601 47.7269C112.366 47.1373 108.051 47.6897 104.101 49.3269C103.13 49.8459 102.251 50.5217 101.501 51.3269V51.1269C101.501 49.9269 101.401 48.5269 100.701 47.1269L99.3008 44.7269L98.2008 42.7269C98.0982 42.6241 97.9695 42.5511 97.8286 42.5159C97.6876 42.4807 97.5398 42.4845 97.4008 42.5269C97.2008 42.6269 97.1008 42.7269 97.1008 43.0269V43.2269C97.2008 44.4269 96.8008 45.6269 96.4008 46.7269C96.1008 47.7269 95.7008 48.9269 95.5008 50.3269C95.4143 51.5638 95.4815 52.8066 95.7008 54.0269C95.8008 54.5269 96.0008 55.1269 96.4008 55.5269L95.1008 56.1269L93.7008 56.6269C91.8722 57.7501 90.3041 59.25 89.1008 61.0269C86.577 64.2245 84.6464 67.8484 83.4008 71.7269C83.9008 64.6269 83.9008 57.2269 81.2008 50.7269L81.5008 50.6269C81.7931 50.3926 82.0137 50.0808 82.1375 49.7272C82.2612 49.3736 82.2832 48.9924 82.2008 48.6269C82.1008 47.2269 80.9008 45.9269 80.1008 45.0269C77.6902 43.1143 74.8921 41.7493 71.9008 41.0269L71.2008 41.1269C71.1024 41.2369 71.048 41.3793 71.048 41.5269C71.048 41.6745 71.1024 41.8169 71.2008 41.9269C72.3008 43.5269 73.2008 45.3269 73.7008 47.2269L75.0008 50.4269C75.5008 51.0269 76.6008 52.2269 78.0008 52.2269C78.8008 52.2269 79.5008 52.0269 80.0008 51.5269C82.0008 56.5269 82.2008 62.2269 82.2008 66.7269C82.0383 70.6064 81.7046 74.4768 81.2008 78.3269C80.9008 74.8269 80.7008 71.2269 79.4008 67.8269C77.9819 63.5757 75.5041 59.7558 72.2008 56.7269C70.6561 55.4449 68.7875 54.6144 66.8008 54.3269L65.4008 54.1269C63.3493 54.016 61.3719 53.3222 59.7008 52.1269C56.1874 49.4807 52.1181 47.6683 47.8008 46.8269C44.6008 46.4269 41.2008 46.4269 38.0008 46.8269L45.5008 41.8269L48.5008 40.3269L50.5008 39.3269C51.5008 38.9269 52.4008 38.3269 53.3008 37.6269C53.3008 38.4269 53.6008 39.1269 54.1008 39.7269C54.5125 40.3745 55.1566 40.8397 55.9008 41.0269C56.6008 41.2269 57.3008 41.4269 58.0008 41.4269C59.5462 41.4113 61.0615 40.9981 62.4008 40.2269C64.4008 39.1269 66.4008 37.5269 67.8008 35.6269C69.4351 33.7504 70.5397 31.4722 71.0008 29.0269V28.2269H71.2008V28.0269C74.0008 26.0269 77.2008 24.4269 80.4008 23.0269C80.613 23.4985 80.9473 23.9048 81.3693 24.2037C81.7913 24.5026 82.2855 24.6833 82.8008 24.7269C83.3117 24.769 83.8243 24.67 84.2827 24.4408C84.7412 24.2115 85.1279 23.8608 85.4008 23.4269C87.8008 24.4269 90.2008 25.2269 92.7008 26.0269L93.3008 26.3269C96.5008 27.3269 99.7008 28.7269 102.701 30.3269L102.201 31.3269C101.401 33.5269 101.501 36.4269 103.701 37.8269C106.201 39.4269 109.401 39.6269 111.501 39.6269C113.101 39.6269 114.701 39.9269 116.501 40.6269L128.401 50.7269L128.001 51.4269C124.52 49.3674 120.627 48.1038 116.601 47.7269ZM127.801 70.5269V69.9269C127.801 69.2269 128.101 68.5269 128.401 67.8269L128.601 67.5269C128.901 66.7269 129.301 65.9269 129.801 65.3269V69.3269L129.001 69.6269C128.501 69.8269 128.101 70.1269 127.801 70.6269V70.5269ZM136.901 77.1269C136.701 75.1269 135.901 73.2269 134.401 71.8269V71.7269L133.401 70.7269H133.301L132.801 70.2269L132.501 70.1269L131.901 69.7269C131.901 67.5269 132.101 65.2269 132.201 63.2269V63.1269C132.401 60.1269 132.701 57.3269 132.401 54.3269C132.819 53.9505 133.109 53.4529 133.231 52.9035C133.352 52.3541 133.299 51.7805 133.079 51.2627C132.859 50.745 132.482 50.309 132.002 50.0157C131.522 49.7225 130.962 49.5865 130.401 49.6269L120.901 41.5269C121.101 41.1269 121.101 40.8269 120.801 40.5269C119.19 38.599 117.876 36.442 116.901 34.1269L116.801 33.8269L115.401 31.0269C114.601 29.6269 113.601 28.2269 112.501 27.0269C111.501 26.0269 109.901 24.5269 108.101 24.5269H107.801C107.101 24.7269 106.501 25.0269 106.201 25.6269C105.701 26.4269 105.701 27.4269 105.901 28.2269C104.201 27.3269 102.301 26.9269 100.401 26.9269C98.2008 25.9269 96.1008 24.9269 93.9008 24.2269L93.4008 24.1269C90.8008 23.2269 88.3008 22.4269 85.9008 21.3269C85.7482 20.6999 85.3976 20.1388 84.9008 19.7269C84.542 19.4012 84.1049 19.1742 83.6321 19.068C83.1593 18.9619 82.667 18.9802 82.2035 19.1213C81.7399 19.2624 81.3209 19.5214 80.9874 19.8729C80.6539 20.2245 80.4173 20.6566 80.3008 21.1269C77.3008 22.3269 74.3008 23.8269 71.6008 25.6269V25.4269C71.6008 24.9269 71.8008 24.0269 72.1008 23.8269C72.5008 23.4269 72.4008 22.8269 72.1008 22.5269C71.9655 22.372 71.7757 22.2752 71.5708 22.2566C71.366 22.238 71.1619 22.299 71.0008 22.4269C69.0008 23.7269 66.7008 24.1269 64.3008 24.4269H62.7008C60.9008 24.5269 59.0008 24.6269 57.3008 25.4269C55.3008 26.1269 53.6008 28.1269 54.2008 30.4269C54.3247 30.8893 54.5507 31.318 54.8622 31.6814C55.1737 32.0449 55.5628 32.3338 56.0008 32.5269L55.9008 32.6269C54.9008 33.0269 53.7008 33.3269 52.9008 34.1269C52.1008 34.6269 51.5008 35.1269 50.9008 35.9269L50.1008 37.3269L49.9008 37.4269L49.3008 37.8269H49.0008L47.9008 38.4269L47.7008 38.5269C46.5008 39.0269 45.3008 39.5269 44.1008 40.3269C40.9008 42.3269 37.8008 44.5269 34.8008 46.7269L34.6008 46.9269C34.2008 46.7269 33.8008 46.5269 33.3008 46.5269C32.8984 46.5266 32.501 46.6162 32.1376 46.7892C31.7743 46.9622 31.4542 47.2143 31.2008 47.5269C30.9409 47.8628 30.7608 48.2535 30.6742 48.6693C30.5876 49.0851 30.5967 49.5152 30.7008 49.9269L30.6008 50.3269L30.7008 58.3269V59.0269L31.0008 60.4269C29.7008 59.5269 28.4008 58.8269 27.0008 58.2269C25.67 57.6716 24.4243 56.9309 23.3008 56.0269C22.7008 55.5269 21.6008 54.7269 21.6008 54.2269V53.7269H21.5008C21.3008 53.5269 21.0008 53.3269 20.7008 53.3269C20.5008 53.3269 20.1008 53.4269 19.9008 53.7269H19.7008V54.2269C19.6008 55.7269 19.3008 57.2269 19.0008 58.8269V59.2269L18.3008 64.7269C17.7509 67.6969 17.9573 70.7576 18.9008 73.6269C19.4178 75.0672 20.3685 76.3118 21.6221 77.1893C22.8758 78.0668 24.3706 78.5342 25.9008 78.5269C26.3024 78.5478 26.7041 78.4878 27.0821 78.3504C27.46 78.2129 27.8065 78.0009 28.1008 77.7269C28.5091 77.478 28.8519 77.1352 29.1008 76.7269C30.3589 79.088 30.9142 81.7601 30.7008 84.4269C30.7008 86.0269 30.7008 87.5269 30.5008 89.1269V91.0269C29.9064 95.1638 30.3181 99.3829 31.7008 103.327C31.1008 103.727 30.7008 104.327 30.4008 105.027C30.1537 105.686 30.1172 106.405 30.2963 107.086C30.4754 107.767 30.8613 108.375 31.4008 108.827C31.9601 109.296 32.6712 109.545 33.4008 109.527H33.8008C36.5008 111.927 39.3008 113.727 41.8008 115.327L43.8008 116.627L44.3008 116.927L46.3008 118.227L47.0008 118.527C47.7008 119.127 48.7008 119.727 49.5008 120.527H49.2008L48.3008 121.227C47.7504 121.678 47.3305 122.269 47.0844 122.937C46.8383 123.605 46.7749 124.326 46.9008 125.027C47.2008 127.627 49.7008 128.727 52.0008 129.527C56.5008 131.027 61.4008 131.527 66.0008 130.927C69.5008 132.727 73.2008 133.927 77.0008 134.527C77.0008 135.527 77.5008 136.427 78.2008 137.027C78.5546 137.344 78.9676 137.587 79.416 137.744C79.8643 137.9 80.3392 137.966 80.8133 137.938C81.2873 137.91 81.7511 137.789 82.1781 137.581C82.605 137.373 82.9866 137.083 83.3008 136.727C83.9577 135.982 84.3142 135.02 84.3008 134.027V133.527L98.4008 128.227L98.7008 128.127H99.3008C99.6008 128.827 100.101 129.427 100.701 129.727C101.301 130.127 102.001 130.327 102.701 130.327H103.201C105.001 130.027 106.501 128.727 107.601 126.527L108.701 123.527H108.901L109.101 123.427L109.201 123.227L112.301 121.027H112.501L114.201 119.927L115.601 118.927L119.601 116.127C123.301 113.727 127.001 111.727 130.701 110.127H131.201C132.001 110.127 132.801 109.827 133.401 109.327C133.986 108.793 134.367 108.07 134.477 107.285C134.586 106.5 134.418 105.701 134.001 105.027C133.601 104.327 133.001 103.827 132.201 103.627C132.601 101.627 132.601 99.4269 132.601 97.3269V96.6269C132.501 93.7269 132.701 90.9269 133.301 88.1269C134.622 86.2017 135.697 84.1189 136.501 81.9269C137.001 80.3269 137.201 78.7269 136.901 77.2269" fill="white"/>
</svg>
