<svg xmlns="http://www.w3.org/2000/svg" width="256" height="256" xmlns:v="https://vecta.io/nano"><defs><linearGradient id="A" gradientTransform="matrix(-4.02e-7,-9.18907,-9.18907,4.02e-7,8.58809,16.1434)" x1="-15.615" y1="-9.108" x2="-6.741" y2="-9.108" gradientUnits="userSpaceOnUse" spreadMethod="pad"><stop offset="0" stop-color="#97d9f6"/><stop offset=".92" stop-color="#0f80cc"/></linearGradient></defs><path d="M137.926 195.603l-.176-2.309s-4.245-28.616-9.297-37.156c-.799-1.354.087-6.913 2.318-15.148 1.304 2.255 6.809 11.9 7.914 15.008 1.245 3.514 1.507 4.521 1.507 4.521s-3.019-15.535-7.973-24.599c1.086-3.665 2.383-7.715 3.851-12.045 1.877 3.293 6.37 11.264 7.359 14.029l.52 1.493.145-.797c-1.134-4.813-3.362-13.188-6.412-19.375 6.767-35.223 29.848-82.303 53.51-103.309H36.832c-10.345 0-18.81 8.466-18.81 18.811v170.228c0 10.344 8.464 18.809 18.81 18.809h101.664c-.733-8.873-.977-18.691-.57-28.16" fill="#0f80cc"/><path d="M99.406 99.761l4.082-7.74.777-2.331s-1.557 8.011-4.112 12.686l1.986 6.212 3.623-6.81.082.954c-.644 2.475-1.622 5.715-2.874 8.254 3.214 16.725 13.559 38.625 24.704 50.448H50.96a6.88 6.88 0 0 1-6.871-6.871V73.179c17.374 6.668 38.323 12.763 56.353 12.502-.669 2.581-1.431 4.915-2.232 6.268-.412.698.045 3.565 1.195 7.812" fill="url(#A)" transform="matrix(1.939054 0 0 -1.939054 -61.982285 334.431685)"/><path d="M227.195 10.344c-10.572-9.428-23.371-5.641-36.004 5.571-1.875 1.666-3.746 3.514-5.608 5.488-21.611 22.925-41.67 65.391-47.902 97.821 2.428 4.923 4.324 11.206 5.573 16.005l.84 3.37c.549 2.327.843 3.835.843 3.835s-.194-.733-.989-3.038l-.52-1.493c-.085-.235-.204-.52-.334-.824-1.41-3.277-5.309-10.194-7.025-13.205-1.468 4.33-2.765 8.381-3.851 12.045 4.954 9.065 7.973 24.599 7.973 24.599s-.262-1.007-1.507-4.521c-1.105-3.108-6.61-12.753-7.914-15.008-2.231 8.235-3.117 13.794-2.318 15.148 1.552 2.623 3.03 7.149 4.328 12.154 2.932 11.275 4.97 25.002 4.97 25.002l.176 2.309c-.407 9.469-.163 19.286.57 28.16.971 11.746 2.8 21.837 5.131 27.238l1.582-.863c-3.422-10.64-4.813-24.584-4.204-40.664.921-24.58 6.577-54.222 17.029-85.117 17.657-46.638 42.155-84.058 64.576-101.928-20.436 18.456-48.094 78.196-56.374 100.319-9.271 24.773-15.84 48.021-19.8 70.294 6.831-20.881 28.919-29.857 28.919-29.857s10.833-13.361 23.494-32.449c-7.584 1.73-20.036 4.691-24.207 6.443-6.153 2.581-7.811 3.461-7.811 3.461s19.93-12.137 37.028-17.632c23.515-37.036 49.134-89.65 23.335-112.665" fill="#003b57"/></svg>