<svg xmlns="http://www.w3.org/2000/svg" width="36" height="36" xmlns:v="https://vecta.io/nano"><path d="M35 1.2l-.8-.6-1.7 1.8-1.3-2-.8.4 1 2.7-.5.5-3.7-4-.9.4 3.4 7.3-3.3 1.1h0l-1.7-2-1.8 2h-9.8l-1.7-2-1.7 2h-.1L6.4 7.7 9.8.4 8.9 0 5.1 4l-.4-.5 1-2.7-.8-.4-1.3 2L1.9.6l-.8.6 2.6 4.3-1.3 1.4.4 3.6 3.1 1.2v1.5H3v.7l1.1 1.6 1.8.7v10.4l4.6 6.8 1 2.6 1.7-2.4 1.7 2.4 1.5-2.4 1.7 2.4 1.6-2.4 1.5 2.4 1.7-2.4 1.7 2.4 1-2.6 4.6-6.8V16.2l1.7-.7 1.1-1.6v-.7h-2.8v-1.5l3.1-1.2.5-3.6-1.5-1.4L35 1.2h0zM21.6 29.3h-9.5l1.2-2.4 1.2 2.4 1.2-1.6 1.2 1.6 1.2-1.6 1.2 1.6 1.1-1.6 1.2 1.6 1.2-2.4 1.1 2.4h-2.3 0zm5.8-11.1l-5 1.6-.1 4.6-4.2 1-4.3-1-.2-4.6-4.9-1.6v-2.5l6.4 1.9-.1 6.1h6.1v-6.1l6.3-1.9v2.5h0z" fill="#4ff8d2"/></svg>