<svg xmlns="http://www.w3.org/2000/svg" width="1200" height="1200" fill="none" xmlns:v="https://vecta.io/nano"><path d="M1054.35 379.14c-.11 89.997-36 176.268-99.79 239.831v-.007L728.273 844.45c-7.841 7.82-20.58 7.84-27.927-.44-55.015-61.992-85.588-142.172-85.49-225.475.105-89.997 36-176.267 99.787-239.83l.007.006 206.74-206.014c18.63-18.569 49.12-18.701 64.92 2.325 43.99 58.525 68.13 130.088 68.04 204.118z" fill="url(#A)"/><path d="M244.786 620.345c-63.787-63.563-99.681-149.833-99.786-239.83-.087-74.03 24.048-145.594 68.035-204.119 15.803-21.026 46.293-20.893 64.928-2.324l206.74 206.016.007-.007c63.787 63.564 99.681 149.833 99.787 239.831a339.08 339.08 0 0 1-85.49 225.468c-7.348 8.28-20.087 8.26-27.927.45L244.793 620.339l-.007.006z" fill="url(#B)"/><path d="M946.05 1023.83c-16.63 20.39-47.03 20.21-65.63 1.59L752.727 897.58a20.07 20.07 0 0 1 .033-28.39l212.09-211.342c7.84-7.813 20.63-7.859 27.54.784 36.81 45.996 51.29 109.566 40.35 179.548-10.02 64.06-40.66 129.19-86.69 185.65z" fill="url(#C)"/><path d="M318.931 1026.8c-18.594 18.61-49.002 18.79-65.626-1.6-46.036-56.46-76.672-121.58-86.688-185.64-10.942-69.989 3.532-133.559 40.342-179.555 6.917-8.642 19.704-8.597 27.545-.784L446.595 870.57c7.854 7.82 7.869 20.54.034 28.38L318.931 1026.8z" fill="url(#C)"/><defs><linearGradient id="A" x1="599.676" y1="158.999" x2="599.676" y2="859.4" gradientUnits="userSpaceOnUse"><stop stop-color="#9f87ff"/><stop offset="1" stop-color="#8566ff"/></linearGradient><linearGradient id="B" x1="599.676" y1="159" x2="599.676" y2="859.4" gradientUnits="userSpaceOnUse"><stop stop-color="#9f87ff"/><stop offset="1" stop-color="#8566ff"/></linearGradient><linearGradient id="C" x1="599.676" y1="643.766" x2="599.676" y2="1039.93" gradientUnits="userSpaceOnUse"><stop stop-color="#de99f6"/><stop offset="1" stop-color="#d669fc"/></linearGradient></defs></svg>